<svg id="Capa_1" enable-background="new 0 0 512 512" height="512" viewBox="0 0 512 512" width="512" xmlns="http://www.w3.org/2000/svg"><g><path d="m512 212.575c0 46.635-37.81 84.44-84.45 84.44h-343.1c-46.64 0-84.45-37.805-84.45-84.44 0-36.896 23.67-68.242 56.66-79.731-2.71-41.495 30.2-75.981 71.1-75.981 11.02 0 21.45 2.51 30.76 6.969 16.4-37.575 53.87-63.832 97.48-63.832s81.08 26.257 97.48 63.832c9.31-4.46 19.74-6.969 30.76-6.969 40.99 0 73.81 34.576 71.11 75.981 32.98 11.489 56.65 42.835 56.65 79.731z" fill="#a8ebfa"/><path d="m512 212.575c0 46.635-37.81 84.44-84.45 84.44h-171.55v-297.015c43.61 0 81.08 26.257 97.48 63.832 9.31-4.46 19.74-6.969 30.76-6.969 40.99 0 73.81 34.576 71.11 75.981 32.98 11.489 56.65 42.835 56.65 79.731z" fill="#7dd5f4"/><path d="m476.89 441.878v55.123c0 8.279-6.72 14.998-15 14.998h-411.78c-8.28 0-15-6.719-15-14.998v-55.123c0-8.279 6.72-14.998 15-14.998 8.29 0 15 6.719 15 14.998v40.125h381.78v-40.125c0-8.279 6.71-14.998 15-14.998 8.28 0 15 6.719 15 14.998z" fill="#5e54ac"/><g><path d="m375.06 350.449-106.71 125.075c-2.8 4.069-7.42 6.499-12.35 6.499h-.01c-4.94 0-9.56-2.43-12.36-6.499l-106.69-125.055c-6.84-9.934.299-23.507 12.36-23.507h48.89l.01-196.377c0-8.279 6.71-14.988 14.99-14.988h42.81l42.81-.01c8.335 0 15 6.762 15 14.998l-.01 196.377 48.9-.01c12.056 0 19.2 13.563 12.36 23.497z" fill="#4793ff"/></g><path d="m375.06 350.449-106.71 125.075c-2.8 4.069-7.42 6.499-12.35 6.499v-366.426l42.81-.01c8.335 0 15 6.762 15 14.998l-.01 196.377 48.9-.01c12.056 0 19.2 13.563 12.36 23.497z" fill="#525cdd"/><path d="m476.89 441.878v55.123c0 8.279-6.72 14.998-15 14.998h-205.89v-29.996h190.89v-40.125c0-8.279 6.71-14.998 15-14.998 8.28 0 15 6.719 15 14.998z" fill="#453d81"/></g></svg>